<?xml version="1.0" encoding="utf-8"?>
<!-- Generator: Adobe Illustrator 23.0.2, SVG Export Plug-In . SVG Version: 6.00 Build 0)  -->
<svg version="1.1" id="Layer_1" xmlns="http://www.w3.org/2000/svg" xmlns:xlink="http://www.w3.org/1999/xlink" x="0px" y="0px"
	 viewBox="0 0 116 199" style="enable-background:new 0 0 116 199;" xml:space="preserve">
<style type="text/css">
	.st0{fill:url(#SVGID_1_);}
</style>
<linearGradient id="SVGID_1_" gradientUnits="userSpaceOnUse" x1="-23.5264" y1="5.711" x2="125.9777" y2="146.5966">
	<stop  offset="0" style="stop-color:#00FFFF"/>
	<stop  offset="0.4743" style="stop-color:#00C1FF"/>
	<stop  offset="1" style="stop-color:#0080FF"/>
</linearGradient>
<path class="st0" d="M90.7,76.6l2.7-44c3.3-0.9,6.4-3,8.5-6.1c4.7-6.9,2.9-16.4-4-21.1c-6.9-4.7-16.4-2.9-21.1,4
	c-4.7,6.9-2.9,16.4,4,21.1c0.3,0.2,0.6,0.4,0.9,0.5c-0.2,0.8-0.4,1.5-0.6,2.3c-0.3,1-0.6,2-0.9,3c-0.5,0.7-1,1.3-1.5,2
	c-4.6,5.9-10.3,10.9-16.7,14.3c-3.2,1.7-6.6,2.9-10.1,3.8c-0.9,0.2-1.7,0.4-2.6,0.6l-2.7,0.4c-0.9,0.1-1.8,0.1-2.7,0.2
	c-0.9,0.1-1.8,0.1-2.7,0.1c-2.4,0-4.7-0.1-7.1-0.4c-0.1-1.8-0.6-3.6-1.5-5.4c-3.7-7.6-12.7-10.7-20.3-7.1S1.7,57.7,5.3,65.2
	c3.7,7.6,12.7,10.7,20.3,7.1c0.8-0.4,1.5-0.8,2.1-1.3c1.3,2.3,2.4,4.7,3.4,7.1c2.9,7,4.3,14.4,4,21.7c-0.1,3.6-0.8,7.2-1.8,10.6
	c-0.3,0.9-0.5,1.7-0.8,2.6l-1,2.5c-0.3,0.8-0.8,1.6-1.1,2.4c-0.4,0.8-0.8,1.6-1.2,2.4c-1.1,2-2.4,3.9-3.8,5.8
	c-1.6-0.8-3.4-1.3-5.3-1.4c-8.4-0.6-15.6,5.7-16.3,14c-0.6,8.4,5.7,15.6,14,16.3c8.4,0.6,15.6-5.7,16.3-14c0.1-0.8,0-1.6,0-2.4
	c2.6,0.1,5.2,0.2,7.7,0.6c7.5,1,14.6,3.4,20.8,7.4c3.1,1.9,5.8,4.3,8.3,6.9c0.6,0.7,1.3,1.3,1.8,2l1.7,2.1c0.6,0.7,1,1.5,1.5,2.2
	c0.5,0.7,1,1.5,1.4,2.3c1.2,2,2.2,4.1,3.2,6.2c-1.4,1-2.7,2.3-3.7,3.8c-4.7,6.9-2.9,16.4,4,21.1c6.9,4.7,16.4,2.9,21.1-4
	c4.7-6.9,2.9-16.4-4-21.1c-1.4-1-2.9-1.6-4.5-2.1l-2.7-44c11.5-0.7,20.8-10,21.3-21.8C112.4,87.7,103,77.4,90.7,76.6z M85.9,155.7
	l-0.7-1.8c-0.6-1.4-1.1-2.8-1.7-4.2l-1.9-4.2l-3.8-8.3l-4.2-8.1c-0.7-1.3-1.4-2.7-2.1-4l-2.3-3.9l-2.3-3.9c-0.4-0.8-0.9-1.5-1.3-2.3
	l4.7-3.1c3.8,5.7,10.2,9.7,17.5,10.1L85.9,155.7z M35.9,123.6c0.2-0.3,0.3-0.7,0.4-1l1.4-1.5c1-1.1,2.1-2.2,3-3.4l2.9-3.5l5.8-7
	l3.6-4.8c1.1,1.8,2.2,3.6,3.2,5.4l3.4,6.3l-25,12.5C35,125.6,35.5,124.6,35.9,123.6z M59.7,84.4c-0.4,0.6-0.7,1.3-1.1,1.9l-2.2,3.9
	l-2.2,3.9c-0.3,0.6-0.7,1.1-1,1.7c-1.2-1.7-2.5-3.3-3.7-4.9c-0.9-1.2-1.8-2.4-2.8-3.6l-2.9-3.5c-3.7-4.5-7.5-8.8-11.5-13L59.7,84.4z
	 M59.9,105.6c-1.4-2.2-2.9-4.3-4.4-6.5c0.7-0.9,1.4-1.9,2.1-2.8l2.5-3.8l2.5-3.8c0.5-0.7,1-1.5,1.5-2.2l5,2.5
	c-1.4,2.8-2.3,6-2.4,9.3c-0.1,3.9,0.7,7.6,2.4,10.9l-5.2,2.6L59.9,105.6z M70.5,86.8l-4.6-3l4-6.4c1.6-2.6,3-5.3,4.5-7.9
	c1.5-2.6,2.8-5.4,4.2-8.1c0.7-1.4,1.4-2.7,2-4.1l1.9-4.2c0.6-1.4,1.3-2.8,1.9-4.2l1.7-4.1l2,31.9C80.7,77.1,74.3,81,70.5,86.8z
	 M41.7,65.2c1-0.1,2-0.3,3-0.5c1-0.2,2-0.3,3-0.6l3-0.8c1-0.2,1.9-0.6,2.9-1c3.8-1.4,7.5-3.2,10.9-5.4c5.1-3.4,9.5-7.7,13-12.5
	L77,46c-0.5,1.4-1,2.8-1.5,4.2L74,54.3c-0.5,1.4-1.1,2.7-1.7,4.1c-1.2,2.7-2.2,5.5-3.6,8.1c-1.3,2.7-2.5,5.4-3.8,8l-3.3,6.3
	L38.4,65.5C39.5,65.5,40.6,65.4,41.7,65.2z M33.4,77.1c-1.3-2.4-2.8-4.8-4.4-7.1c0.2-0.1,0.3-0.3,0.5-0.4c4.3,5,8.4,10.3,12.2,15.7
	l2.6,3.6c0.8,1.2,1.6,2.5,2.5,3.7c1.4,2.1,2.8,4.2,4.1,6.4l-4.1,6.3l-5.2,7.3l-2.6,3.6c-0.3,0.4-0.6,0.8-0.9,1.2l0.7-2.7
	c0.3-1,0.4-2,0.6-3c0.7-4,1-8.1,0.7-12.1C39.6,91.7,37.1,83.9,33.4,77.1z M65,142.2c-7.3-3.6-15.2-5.3-23-5.5
	c-2.7-0.1-5.4,0-8.1,0.3c-0.1-0.3-0.1-0.6-0.2-0.9l27.7-18.4c0.3,0.7,0.6,1.3,1,2l1.9,4l1.9,4c0.6,1.3,1.2,2.7,1.8,4.1l3.5,8.2
	l3.1,8.3l0.1,0.2C71.7,146,68.5,143.8,65,142.2z"/>
</svg>
